<svg width="61" height="37" xmlns="http://www.w3.org/2000/svg"><path d="M1.001 32.451a3.077 3.077 0 0 0 3.093 3.075h52.339a3.077 3.077 0 0 0 3.093-3.075V4.073A3.077 3.077 0 0 0 56.433.999H4.094a3.077 3.077 0 0 0-3.093 3.074V32.45zm1.428 0V4.073c0-.899.761-1.655 1.665-1.655h3.569v31.689H4.094c-.904 0-1.665-.757-1.665-1.656zm1.903-9.46c0 .38.333.71.714.71a.73.73 0 0 0 .713-.71v-9.459a.73.73 0 0 0-.713-.71.73.73 0 0 0-.714.71v9.46zM9.09 34.108V2.417h47.343c.904 0 1.665.757 1.665 1.656V32.45c0 .899-.761 1.656-1.665 1.656h-7.375V6.437a.73.73 0 0 0-.714-.709.73.73 0 0 0-.714.71v27.669H9.09zm41.395-15.845a3.077 3.077 0 0 0 3.093 3.074 3.077 3.077 0 0 0 3.093-3.074 3.077 3.077 0 0 0-3.093-3.074 3.077 3.077 0 0 0-3.093 3.074zm1.428 0c0-.899.761-1.655 1.665-1.655s1.665.756 1.665 1.655-.76 1.656-1.665 1.656c-.904 0-1.665-.757-1.665-1.656z" fill="#01ACFF" stroke="#00AEFF"/></svg>