<svg width="82" height="38" xmlns="http://www.w3.org/2000/svg"><path d="M54.8 37.2c9.4 0 22.6-.9 26.2-5.6l.3-.3-.1-7.8v-1.2c-.1-.8-.2-3-19.4-6.1L38.8 1l-.2-.1c-.1 0-3-.9-5.6 1.8-2.8 2.1-10.5 7.1-14.6 6.9-1.3-1.1-5.9-5-10.4-5.8-1.7-.3-3.6-.5-4.9.8-1.9 1.8-2.1 5.9-.9 16.7v1.1c-.1.3-.3.7-.5 1.3-.3.6-1.6 3.6-1 11.3l.1 1.1 44.4.8c1 .1 4.8.3 9.6.3zM4.5 23.3l.1-.3v-1.9l15.5-.1c.1 0 11.4.4 18.5 3.9.5.3 3.7 2.1 8.8 3.5-.7 0-1.4-.1-2-.1l-42.1-.8c.1-1.7.9-3.5 1.2-4.2zm.3-16.9C5.2 6 6 6 7.6 6.2c4.4.8 9.4 5.4 9.5 5.5l.3.3.4.1c5.8.8 15.8-6.6 16.9-7.4l.2-.1c1.3-1.3 2.6-1.3 3-1.2l4.6 3.1-2.7 3.2c-.4.5-.4 1.3.1 1.8.2.2.5.3.8.3.4 0 .7-.2 1-.4l2.9-3.5 3.4 2.2-2.8 3.3c-.4.5-.4 1.3.2 1.8.2.2.5.3.8.3.4 0 .7-.2 1-.4l3-3.6 3.5 2.3-3.1 3.2c-.4.5-.4 1.3.2 1.8.2.2.5.3.8.3.4 0 .7-.2 1-.4l3-3.6 5.3 3.5h.3c13.3 2.2 16.8 3.8 17.5 4.3v1.2c-6.8 4.3-18.8 3.4-18.9 3.4h-.2c-11.8.1-19.7-4.6-19.8-4.7l-.1-.1c-7.6-3.8-19.1-4.2-19.6-4.2l-15.8.1c-.5-5.6-.8-11 .5-12.2zM3 30l42.3.8c1 .1 4.8.3 9.6.3 8 0 18.6-.7 23.8-3.8v3.1c-4.6 4.8-25.6 4.5-33.5 4L3 33.6V30z" fill="#510EED"/></svg>