<svg width="67" height="46" xmlns="http://www.w3.org/2000/svg"><g fill="#30E2C0"><path d="M9.324.362V3.15h29.843v17.02H60.28l3.49 4.454V36.52h-5.374a7.75 7.75 0 0 0-7.636-6.394 7.75 7.75 0 0 0-7.635 6.394H29.312a7.75 7.75 0 0 0-7.635-6.394 7.75 7.75 0 0 0-7.635 6.394H9.324v2.788h4.697a7.758 7.758 0 0 0 7.628 6.324 7.758 7.758 0 0 0 7.629-6.324H43.11a7.758 7.758 0 0 0 7.629 6.324 7.758 7.758 0 0 0 7.628-6.324h8.172V23.697l-4.34-5.576-6.75-14.197H41.96V.369L9.324.362zM21.635 42.85a4.976 4.976 0 0 1-4.598-3.07 4.964 4.964 0 0 1 1.082-5.416 4.981 4.981 0 0 1 5.426-1.073 4.97 4.97 0 0 1 3.067 4.596 4.973 4.973 0 0 1-4.977 4.963zm29.097 0a4.976 4.976 0 0 1-4.598-3.07 4.964 4.964 0 0 1 1.081-5.416 4.981 4.981 0 0 1 5.426-1.073 4.97 4.97 0 0 1 3.067 4.596 4.973 4.973 0 0 1-4.97 4.963h-.006zm2.952-36.138l5.095 10.677h-16.82V6.712h11.725z"/><path d="M3.95 25.788h11.167v2.788H3.95zM.461 17.424h19.542v2.788H.461zM3.95 9.061h19.542v2.788H3.95z"/></g></svg>