<?xml version="1.0" encoding="UTF-8"?>
<svg width="61px" height="37px" viewBox="0 0 61 37" version="1.1" xmlns="http://www.w3.org/2000/svg" xmlns:xlink="http://www.w3.org/1999/xlink">
    <!-- Generator: Sketch 49.3 (51167) - http://www.bohemiancoding.com/sketch -->
    <title>icon-phone</title>
    <desc>Created with Sketch.</desc>
    <defs></defs>
    <g id="Page-1" stroke="none" stroke-width="1" fill="none" fill-rule="evenodd">
        <g id="desktop" transform="translate(-1070.000000, -1188.000000)" fill="#01ACFF" fill-rule="nonzero" stroke="#00AEFF">
            <g id="features" transform="translate(0.000000, 936.000000)">
                <g id="cards" transform="translate(168.000000, 217.000000)">
                    <g id="cards-copy-2" transform="translate(760.000000, 0.000000)">
                        <g id="Group">
                            <g id="noun_885454_cc" transform="translate(143.000000, 35.000000)">
                                <path d="M15.0743243,-11 C13.3716216,-11 12,-9.62016129 12,-7.90725806 L12,44.4314516 C12,46.1443548 13.3716216,47.5241935 15.0743243,47.5241935 L43.4527027,47.5241935 C45.1554054,47.5241935 46.527027,46.1443548 46.527027,44.4314516 L46.527027,-7.90725806 C46.527027,-9.62016129 45.1554054,-11 43.4527027,-11 L15.0743243,-11 Z M15.0743243,-9.57258065 L43.4527027,-9.57258065 C44.3513514,-9.57258065 45.1081081,-8.81129032 45.1081081,-7.90725806 L45.1081081,-4.33870968 L13.4189189,-4.33870968 L13.4189189,-7.90725806 C13.4189189,-8.81129032 14.1756757,-9.57258065 15.0743243,-9.57258065 Z M24.5337838,-7.66935484 C24.1554054,-7.66935484 23.8243243,-7.33629032 23.8243243,-6.95564516 C23.8243243,-6.575 24.1554054,-6.24193548 24.5337838,-6.24193548 L33.9932432,-6.24193548 C34.3716216,-6.24193548 34.7027027,-6.575 34.7027027,-6.95564516 C34.7027027,-7.33629032 34.3716216,-7.66935484 33.9932432,-7.66935484 L24.5337838,-7.66935484 Z M13.4189189,-2.91129032 L45.1081081,-2.91129032 L45.1081081,44.4314516 C45.1081081,45.3354839 44.3513514,46.0967742 43.4527027,46.0967742 L15.0743243,46.0967742 C14.1756757,46.0967742 13.4189189,45.3354839 13.4189189,44.4314516 L13.4189189,37.0564516 L41.0878378,37.0564516 C41.4662162,37.0564516 41.7972973,36.7233871 41.7972973,36.3427419 C41.7972973,35.9620968 41.4662162,35.6290323 41.0878378,35.6290323 L13.4189189,35.6290323 L13.4189189,-2.91129032 Z M29.2635135,38.483871 C27.5608108,38.483871 26.1891892,39.8637097 26.1891892,41.5766129 C26.1891892,43.2895161 27.5608108,44.6693548 29.2635135,44.6693548 C30.9662162,44.6693548 32.3378378,43.2895161 32.3378378,41.5766129 C32.3378378,39.8637097 30.9662162,38.483871 29.2635135,38.483871 Z M29.2635135,39.9112903 C30.1621622,39.9112903 30.9189189,40.6725806 30.9189189,41.5766129 C30.9189189,42.4806452 30.1621622,43.2419355 29.2635135,43.2419355 C28.3648649,43.2419355 27.6081081,42.4806452 27.6081081,41.5766129 C27.6081081,40.6725806 28.3648649,39.9112903 29.2635135,39.9112903 Z" id="icon-phone" transform="translate(29.263514, 18.262097) rotate(-90.000000) translate(-29.263514, -18.262097) "></path>
                            </g>
                        </g>
                    </g>
                </g>
            </g>
        </g>
    </g>
</svg>