<svg width="139" height="25" xmlns="http://www.w3.org/2000/svg"><path d="M15.04 18.228c0-1.292-.483-2.347-1.448-3.166-.966-.819-2.648-1.543-5.045-2.172-2.593-.651-4.557-1.498-5.892-2.54C1.321 9.31.653 7.905.653 6.137c0-1.812.746-3.288 2.238-4.427C4.383.569 6.301 0 8.644 0c2.441 0 4.41.678 5.908 2.034 1.497 1.357 2.224 3.011 2.18 4.964l-.048.098h-1.79c0-1.584-.562-2.886-1.685-3.906s-2.644-1.53-4.565-1.53c-1.898 0-3.382.423-4.45 1.27-1.07.846-1.604 1.898-1.604 3.157 0 1.193.494 2.189 1.481 2.986.987.798 2.69 1.5 5.11 2.108 2.55.65 4.49 1.53 5.818 2.636 1.33 1.107 1.994 2.566 1.994 4.378 0 1.888-.773 3.39-2.319 4.508-1.546 1.118-3.518 1.676-5.916 1.676-2.365 0-4.43-.594-6.192-1.782-1.763-1.188-2.618-2.921-2.564-5.2l.033-.097h1.79c0 1.844.69 3.211 2.067 4.101 1.378.89 3 1.335 4.866 1.335 1.877 0 3.393-.413 4.549-1.237 1.155-.825 1.733-1.915 1.733-3.271zm22.479 5.81h-1.937V13.134H22.107v10.904H20.17V.342h1.937v11.132h13.475V.342h1.937v23.696zm22.17-9.912c0 3.06-.839 5.534-2.515 7.422-1.676 1.887-3.925 2.831-6.746 2.831-2.778 0-4.994-.944-6.648-2.831-1.655-1.888-2.482-4.362-2.482-7.422V10.27c0-3.049.825-5.522 2.474-7.42C45.42.948 47.634 0 50.412 0c2.82 0 5.072.95 6.754 2.848 1.681 1.899 2.522 4.372 2.522 7.421v3.857zm-1.937-3.89c0-2.56-.649-4.621-1.945-6.184C54.51 2.49 52.712 1.71 50.412 1.71c-2.257 0-4.015.781-5.273 2.343-1.259 1.563-1.888 3.624-1.888 6.185v3.89c0 2.582.632 4.654 1.896 6.216 1.264 1.563 3.024 2.344 5.281 2.344 2.311 0 4.11-.779 5.395-2.336 1.286-1.557 1.929-3.632 1.929-6.225v-3.89zm19.06 2.328H65.405v9.83h13.069v1.644H63.467V.342h14.924v1.66H65.404v8.902h11.409v1.66zm16.327 6.363h-8.316l-1.611 5.11H78.41L86.564.343h4.867l8.12 23.696h-4.8l-1.612-5.11zm-7.144-3.726h5.973l-2.93-9.31h-.097l-2.946 9.31zm19.137.244v8.593h-4.752V.342h9.44c2.723 0 4.866.694 6.428 2.083 1.562 1.389 2.343 3.217 2.343 5.484 0 2.268-.78 4.09-2.343 5.469-1.562 1.378-3.705 2.067-6.429 2.067h-4.687zm0-3.662h4.687c1.324 0 2.328-.36 3.011-1.082.684-.722 1.026-1.641 1.026-2.759 0-1.14-.34-2.08-1.018-2.824-.678-.743-1.684-1.114-3.019-1.114h-4.687v7.779zm20.326 3.662v8.593h-4.752V.342h9.439c2.723 0 4.866.694 6.428 2.083 1.563 1.389 2.344 3.217 2.344 5.484 0 2.268-.781 4.09-2.344 5.469-1.562 1.378-3.705 2.067-6.428 2.067h-4.687zm0-3.662h4.687c1.324 0 2.327-.36 3.01-1.082.684-.722 1.026-1.641 1.026-2.759 0-1.14-.339-2.08-1.017-2.824-.678-.743-1.685-1.114-3.019-1.114h-4.687v7.779z" fill="#FFF" fill-rule="evenodd"/></svg>